<?xml version="1.0" standalone="no"?><!DOCTYPE svg PUBLIC "-//W3C//DTD SVG 1.1//EN" "http://www.w3.org/Graphics/SVG/1.1/DTD/svg11.dtd"><svg t="1575014528101" class="icon" viewBox="0 0 1024 1024" version="1.1" xmlns="http://www.w3.org/2000/svg" p-id="1915" xmlns:xlink="http://www.w3.org/1999/xlink" width="128" height="128"><defs><style type="text/css"></style></defs><path d="M118.528 389.12c0 48.896 39.8336 89.6 87.6032 89.6S293.7856 437.8112 293.7856 389.12c7.9872-57.0368-39.8336-89.6-87.6544-89.6S118.528 340.0192 118.528 389.12z m833.024-208.4864C919.7056 180.4288 896 204.8 896 229.3248c7.9872 24.4224 31.8464 48.8448 55.7568 48.8448 31.8976 0 55.808-24.4224 55.808-48.8448s-24.1152-48.896-56.0128-48.896z m-243.1488 40.3456c47.8208 0 87.6544-40.96 87.6544-89.6s-39.8336-89.6-87.6544-89.6-87.6032 40.96-87.6032 89.6c-7.9872 48.64 31.8464 89.3952 87.6032 89.3952z m-365.056 24.4224c39.8336 0 79.6672-32.5632 79.6672-73.3184s-31.8976-73.5232-79.6672-73.5232c-39.8336 0-79.6672 32.6144-79.6672 73.3184s31.8464 73.3184 79.6672 73.3184zM738.2016 455.68c0 40.96 31.8976 73.3184 79.6672 73.3184 39.8336 0 79.6672-32.6144 79.6672-73.3184s-31.8464-73.3184-79.6672-73.3184C778.24 382.2592 738.2016 414.72 738.2016 455.68z m-197.7856-6.7072c39.8336 0 63.744-32.5632 63.744-65.1776s-31.8464-65.1264-63.744-65.1264c-39.8336 0-63.744 32.5632-63.744 65.1264s31.8976 65.0752 63.744 65.0752z m393.1648 139.3664c-8.5504 0-17.152 0-21.4016 4.352-171.52 122.4704-325.9392 35.0208-330.1888 30.72C260.4032 421.9904 46.08 636.3136 46.08 636.3136a22.8864 22.8864 0 0 0-8.5504 17.5104A33.1264 33.1264 0 0 0 46.08 671.3344c8.6016 13.1072 25.6 8.7552 38.6048 0 4.3008-8.7552 180.0704-179.2 463.104-4.352 4.3008 4.352 72.9088 43.7248 171.52 43.7248 64.3072 0 145.7664-17.5104 227.2768-74.3936a32.9728 32.9728 0 0 0 4.2496-39.3216 21.9648 21.9648 0 0 0-17.2544-8.7552zM88.0128 180.0704a64.4608 64.4608 0 0 0 63.744-65.1264A64.4608 64.4608 0 0 0 88.064 49.664 64.512 64.512 0 0 0 24.32 114.8416a64.4096 64.4096 0 0 0 63.6928 65.2288z m60.0064 589.568H75.776v209.92h49.5616v-69.5296h24.064c43.4688 0 81.408-22.0672 81.408-72.0384 0-51.968-37.376-68.352-82.7904-68.352zM146.8928 870.4h-21.5552v-60.928h20.224c23.808 0 37.0688 7.3216 37.0688 28.5184S171.008 870.4 146.8928 870.4z m229.3248-10.24c-3.8912 12.1344-7.2192 25.6-11.3664 38.4H363.52c-3.84-13.0048-7.168-26.2656-11.3152-38.4l-32.6656-90.6752H266.24v209.92h44.032V907.776a707.2768 707.2768 0 0 0-6.3488-72.9088h1.1264l16.5888 50.2784 27.9552 76.8h27.136l27.6992-76.8 17.152-50.2784h1.1264a707.2768 707.2768 0 0 0-6.3488 72.9088v71.9872h45.1072v-209.92H407.7568zM568.32 940.2368c31.5904-32.4608 62.0032-72.2944 62.0032-108.4416 0-40.1408-27.648-66.0992-67.5328-66.0992-29.3376 0-48.1792 10.7008-68.4032 32.4608l26.88 27.136c9.6768-10.752 20.48-20.48 34.8672-20.48 16.3328 0 26.88 10.24 26.88 29.696 0 30.72-34.6112 68.608-86.1184 116.3776v28.7744h142.8992v-42.3424h-37.9904a282.1632 282.1632 0 0 0-33.4848 2.9184z m134.2976-18.944a31.2832 31.2832 0 1 0 29.3376 31.0784 29.6448 29.6448 0 0 0-29.5936-31.0784z m137.6256-78.4896a50.7904 50.7904 0 0 0-21.2992 4.2496l3.0208-35.84h73.3696v-41.7792h-115.712l-5.12 103.936 21.5552 14.3872c12.2368-7.8848 17.7664-10.24 29.0816-10.24 17.7664 0 30.208 11.3152 30.208 32.4608s-12.4416 32.768-32.4096 32.768c-16.3328 0-30.72-8.7552-42.3424-20.0192l-22.8352 31.8976a97.28 97.28 0 0 0 71.9872 29.1328c39.5776 0 74.496-27.392 74.496-74.5984 0-45.4656-29.3888-66.3552-64.256-66.3552z" fill="#1296db" p-id="1916"></path></svg>