<?xml version="1.0" standalone="no"?><!DOCTYPE svg PUBLIC "-//W3C//DTD SVG 1.1//EN" "http://www.w3.org/Graphics/SVG/1.1/DTD/svg11.dtd"><svg t="1577433945808" class="icon" viewBox="0 0 1024 1024" version="1.1" xmlns="http://www.w3.org/2000/svg" p-id="49541" xmlns:xlink="http://www.w3.org/1999/xlink" width="128" height="128"><defs><style type="text/css"></style></defs><path d="M953.368563 519.814591l-218.935521 39.2461V183.729462l218.935521 34.628911v301.456218z" fill="#1F84E8" p-id="49542"></path><path d="M878.373884 517.067364L744.971774 540.984399V201.79421l133.40211 18.607269v296.665885z" fill="#6EBBF9" p-id="49543"></path><path d="M368.012986 717.349445h140.778068v306.639012H368.012986z" fill="#1F84E8" p-id="49544"></path><path d="M568.999188 878.858689v54.806024a24.886644 24.886644 0 0 1-24.886644 24.886644H327.485616a24.886644 24.886644 0 0 1-24.898187-24.886644v-54.806024a24.805844 24.805844 0 0 1 24.805844-24.805844h216.800072a24.805844 24.805844 0 0 1 24.805843 24.805844z" fill="#1F84E8" p-id="49545"></path><path d="M439.625575 368.994138m-368.994138 0a368.994138 368.994138 0 1 0 737.988276 0 368.994138 368.994138 0 1 0-737.988276 0Z" fill="#1F84E8" p-id="49546"></path><path d="M439.625575 23.155199C248.624042 23.155199 93.775092 177.992605 93.775092 369.005681S248.624042 714.844621 439.625575 714.844621s345.850482-154.837406 345.850482-345.850483S630.638651 23.155199 439.625575 23.155199z m0 638.222382c-161.463072-0.011543-292.383443-130.908829-292.383443-292.383443S278.162503 76.622238 439.625575 76.622238s292.3719 130.897286 292.3719 292.3719-130.897286 292.3719-292.3719 292.3719z" fill="#6EBBF9" p-id="49547"></path><path d="M439.625575 368.994138m-83.23636 0a83.23636 83.23636 0 1 0 166.47272 0 83.23636 83.23636 0 1 0-166.47272 0Z" fill="#1F84E8" p-id="49548"></path><path d="M439.625575 368.994138m-44.151862 0a44.151862 44.151862 0 1 0 88.303724 0 44.151862 44.151862 0 1 0-88.303724 0Z" fill="#FFFFFF" p-id="49549"></path><path d="M431.857156 25.99477h13.078185v41.393092h-13.078185zM97.364956 374.857967v-13.078185h41.393093v13.078185zM741.081793 374.86951v-13.078185h41.393092v13.078185z" fill="#FFFFFF" p-id="49550"></path><path d="M510.199297 351.55271v-0.126973h-39.2461v0.069258a36.695103 36.695103 0 1 0 0 33.959419v0.600235h39.2461v-0.103887l193.921904-16.056272v-3.462891z" fill="#2ECE17" p-id="49551"></path><path d="M375.492831 329.898097l-0.080801 0.092344 27.887817 27.645414a36.695103 36.695103 0 1 0 23.905492-24.124808l0.42709-0.42709-27.853188-27.703129-0.069258 0.069258-149.054378-125.102715-2.435567 2.458653z" fill="#0B0BF7" p-id="49552"></path><path d="M440.491298 416.574263l5.59834-16.425647a32.643521 32.643521 0 0 0 17.787718-52.162684l83.328704-246.580936-1.269727-0.519434-109.935251 234.968708a32.655064 32.655064 0 0 0-24.044007 51.724051l-6.821896 14.671115-20.027054-8.080079-5.28668 13.032014a38.957525 38.957525 0 0 0 21.458382 50.78907 38.957525 38.957525 0 0 0 50.78907-21.458382l5.286681-13.032014z" fill="#F94230" p-id="49553"></path><path d="M438.40202 368.41699m-19.115159 0a19.115159 19.115159 0 1 0 38.230318 0 19.115159 19.115159 0 1 0-38.230318 0Z" fill="#1F84E8" p-id="49554"></path><path d="M367.666697 753.802146h44.855983v86.583822h-44.855983zM464.246731 753.802146h44.855983v86.583822H464.246731z" fill="#6EBBF9" p-id="49555"></path><path d="M314.418974 590.342141m22.866624 0l201.759582 0q22.866625 0 22.866624 22.866624l0 0q0 22.866625-22.866624 22.866625l-201.759582 0q-22.866625 0-22.866624-22.866625l0 0q0-22.866625 22.866624-22.866624Z" fill="#6EBBF9" p-id="49556"></path><path d="M339.294075 614.363062m-11.185138 0a11.185138 11.185138 0 1 0 22.370277 0 11.185138 11.185138 0 1 0-22.370277 0Z" fill="#1F84E8" p-id="49557"></path><path d="M537.833168 614.363062m-11.185138 0a11.185138 11.185138 0 1 0 22.370276 0 11.185138 11.185138 0 1 0-22.370276 0Z" fill="#1F84E8" p-id="49558"></path><path d="M466.982415 516.986563l-27.206781-38.668951h-1.154298l-29.307602 38.668951h-0.219316a2.804942 2.804942 0 0 0-2.804942 2.804942v146.676526h63.486338V519.791505a2.804942 2.804942 0 0 0-2.804942-2.804942z" fill="#6EBBF9" p-id="49559"></path></svg>