<?xml version="1.0" standalone="no"?><!DOCTYPE svg PUBLIC "-//W3C//DTD SVG 1.1//EN" "http://www.w3.org/Graphics/SVG/1.1/DTD/svg11.dtd"><svg t="1577433104699" class="icon" viewBox="0 0 1024 1024" version="1.1" xmlns="http://www.w3.org/2000/svg" p-id="5930" xmlns:xlink="http://www.w3.org/1999/xlink" width="128" height="128"><defs><style type="text/css"></style></defs><path d="M1006.5635853116014 1008.6946621724259H23.483490953918306V25.771308786379677h982.9233533860456V1008.6946621724259z m-927.5937491790354-55.4863451786475h871.9506630287507V81.25765396502709H78.96983613256606v871.9506630287507z" fill="#5DA469" p-id="5931"></path><path d="M791.8282979700238 722.7989216413546V630.9486450097736c-27.899912476248343-2.6645986872575955-50.627370719043896-13.949957322836779-67.39866770077549-33.69933493510034-16.928037953368772-19.906118583900767-25.54879790169036-45.76839625944032-25.54879790169036-76.64639153564585 0-30.72125213514314 8.464018976684386-56.740272951745084 25.235315958415953-76.95987347892026 16.45781503845717-20.062859555537962 39.185271111827525-32.13192304930315 67.86889061568706-35.736967566383925v-96.23902600684698H830.0731210826027v96.08228503520982c28.84036047549675 2.6645986872575955 51.7245575205043 13.949957322836779 68.02563158732428 33.54259396346315 16.45781503845717 19.74937761226357 24.921831845716344 45.76839625944032 24.921834015141556 76.95987347892026 0 30.407770191868746-8.464018976684386 56.27005003683349-25.235315958415953 76.95987347892026-16.614556010094372 20.21960052717516-39.34201208346472 32.28866402094034-67.39866553135026 35.89370853802113v91.85027663158021h-38.55830722527874z m0.15674097163719897-280.7232862976187c-16.771296981731574 2.8213396588947948-30.094288248594342 10.815135720667582-39.49875522452714 23.824645044255952-9.717946749781978 13.63647537956238-14.733662181022773 31.818441106028736-14.733662181022773 53.76219232121309 0 21.16004635699836 5.015715431240793 38.87178916855313 14.733662181022773 52.5082645481155 9.404464806507582 13.009509323588372 22.570717271158358 21.16004635699836 39.49875522452714 24.294867959167547v-154.3899698727521z m37.931341169304716 154.3899698727521c17.084778925005974-2.6645986872575955 30.407770191868746-10.658394749030382 39.34201425288993-23.667904072618754 9.561205778144778-13.479734407925179 14.420180237748376-31.50495916275434 14.420180237748376-53.76219232121309 0-22.570717271158358-4.702233487966395-39.96897597001352-14.576921209385576-53.6054513495759-9.09098286323318-12.85276835195117-22.25723532788396-20.689823442086762-39.18527328125275-23.511163100981555V596.4656052164876z m-244.20261170362355 34.639780764923536c-20.846564413723964 0-39.34201208346472-4.232008403629588-55.016122263735895-12.539288578101987l-0.9404458298231942-0.4702229149115971v-42.79031562890831l2.8213396588947948 2.194375772345999c17.24151989664317 13.322991266862768 36.36393145293272 19.906118583900767 56.58353198010789 19.90611641447555 26.645984703150752 0 39.65549402673912-8.777500919958783 39.655496196164336-26.645984703150752 0-7.5235731468611915-2.8213396588947948-13.79321635119958-8.464018976684386-18.65218864137796-5.6426793177895895-5.015715431240793-17.555001839917566-10.971876692304784-36.207192650720735-18.33870669810356-22.570717271158358-9.561205778144778-36.990895339481526-18.965670584652358-43.8875024303687-28.370137560585153-6.896607090887184-9.717946749781978-10.344910636330773-21.31678732863556-10.344912805755989-34.483037623861115 0-19.122411556289556 7.83705509013559-34.639780764923536 23.19768115770715-46.23862134377713 15.36062606757157-11.442099607216377 34.16955785001195-17.24151989664317 56.42679100847069-17.24151989664317 17.24151989664317 0 32.915627907489124 3.1348216021691933 47.962772031786294 9.404464806507582l1.0971889708856062 0.4702229149115971v40.43920105435032l-2.8213396588947948-1.8808916596463885c-14.420180237748376-9.874687721419177-31.19147721947995-14.890403152659973-49.843665860857904-14.890405322085185-10.971876692304784 0-19.906118583900767 2.5078577156203967-26.489243731513554 7.5235731468611915-6.739866119249983 5.015715431240793-10.031428693056379 11.285358635579179-10.031430862481587 19.122411556289556 0 7.83705509013559 2.3511167439831975 13.949957322836779 7.053350231949593 18.33870886752878 4.858974459603597 4.545492516329196 16.14433092575756 10.344910636330773 33.542591794037925 17.555001839917566 22.41397629952116 8.777500919958783 37.93134333872994 18.025224754829164 45.92513940050272 27.74317150461114 8.150537033409988 9.874687721419177 12.225804465402375 21.94375121518435 12.225804465402375 35.89370853802113 0 19.906118583900767-7.83705509013559 35.58022659474673-23.19768115770715 47.02232620196311-15.36062606757157 11.12861766394198-35.26674465147234 16.928037953368772-59.24813066736548 16.928037953368772z m-193.10501806966803 0c-30.25102922023154 0-54.8593812920987-10.188169664693573-72.72786507529065-30.094288248594342-18.18196572646636-20.376341498812362-27.27294858969955-47.02232620196311-27.27294858969955-79.31099022290344 0-34.796521736560734 9.404464806507582-62.853175184446265 28.056653447885534-83.38625765489586 18.65218864137796-20.376341498812362 44.357727514705516-30.72125213514314 76.17616862073426-30.72125430456835 30.407770191868746 0 54.5458971793991 10.031428693056379 71.94415804767945 29.62406533368274 17.24151989664317 19.43589566898916 26.01902081660195 46.708844258688714 26.01902081660195 81.19188405197504 0 33.542591794037925-9.247723834870381 60.972283524799906-27.586430532973946 81.50536382582425-18.808929613015163 20.689823442086762-43.73076362815672 31.19147721947995-74.60875673493705 31.19147721947995z m2.1943736029207863-189.49997355258725c-19.279154697351967 0-34.639780764923536 7.053348062524383-45.6116552878031 20.689823442086762-11.285358635579179 14.106698294473976-16.928037953368772 33.229109850763535-16.928037953368772 57.994200724842685 0 23.511163100981555 5.799420289426788 42.47683368563391 17.084778925005974 55.95656809355909 11.285358635579179 13.63647537956238 26.175761788239157 20.21960052717516 45.454914316165905 20.21960052717516 19.43589566898916 0 34.48303979328634-6.739866119249983 44.82795259904232-19.74937761226357 10.344910636330773-13.322991266862768 15.674108010845966-32.75888693585195 15.674108010845966-57.523977809931075 0-25.078572817353546-5.329197374515191-44.514468486342714-15.674108010845966-57.837461922630695-10.188169664693573-13.009509323588372-25.235315958415953-19.74937761226357-44.82795259904232-19.749375442838353zM204.8329274730957 631.1053859814111c-29.153842418771152 0-52.97848746302711-10.031428693056379-71.00371221785625-29.780806305319945-17.711742811554767-19.74937761226357-26.80272567478795-45.76839625944032-26.80272567478795-76.95987347892026 0-34.796521736560734 9.717946749781978-63.16665712772067 28.997101447133943-84.48344662578147 19.279154697351967-21.31678732863556 45.454914316165905-32.13192304930315 77.43009639383186-32.13192304930315 18.495447669740763 0 34.48303979328634 3.6050445170807905 47.8060310601491 10.501653777393184l0.940447999248407 0.4702229149115971v41.536387855810716l-2.8213396588947948-2.194375772345999c-13.949957322836779-10.815135720667582-28.997101447133943-15.987589954120365-45.92513940050272-15.987589954120365-19.43589566898916 0-35.736967566383925 7.210089034161581-47.962772031786294 21.473528300272747-12.382545437039576 14.263439266111172-18.65218864137796 33.69933276567513-18.65218864137796 57.837461922630695 0 23.667904072618754 5.956161261063988 42.47683368563391 17.555001839917566 55.64308398085949 11.598840578853576 13.166250295225572 27.42968956133674 19.906118583900767 47.179067173600316 19.906118583900767 16.771296981731574 0 32.44540499257754-5.6426793177895895 47.649290088511904-17.398260868280367l2.8213396588947948-2.1943736029207863v39.185271111827525h-1.724152857434402c-14.733662181022773 9.561205778144778-33.69933276567513 14.576921209385576-55.4863451786475 14.576921209385576z" fill="#5DA469" p-id="5932"></path></svg>