<?xml version="1.0" standalone="no"?><!DOCTYPE svg PUBLIC "-//W3C//DTD SVG 1.1//EN" "http://www.w3.org/Graphics/SVG/1.1/DTD/svg11.dtd"><svg t="1577434370131" class="icon" viewBox="0 0 1024 1024" version="1.1" xmlns="http://www.w3.org/2000/svg" p-id="59110" xmlns:xlink="http://www.w3.org/1999/xlink" width="128" height="128"><defs><style type="text/css"></style></defs><path d="M512.033656 1023.999737a511.992375 511.992375 0 1 1 511.966083-511.966083 511.545404 511.545404 0 0 1-511.966083 511.966083z m43.645424-767.975417h-212.285032v511.992376h84.293511v-195.77339h126.519145c124.994184 0 186.676211-54.214979 186.676212-159.621307 0-103.90766-61.708319-156.597678-185.203836-156.597679z m-6.126135 243.967404h-121.891678v-171.715822H549.552945a117.474551 117.474551 0 0 1 79.797507 21.033939 75.012286 75.012286 0 0 1 27.133782 64.705656A82.058656 82.058656 0 0 1 631.05946 480.403868a132.093139 132.093139 0 0 1-81.506515 19.587856z" p-id="59111" fill="#1296db"></path></svg>