<?xml version="1.0" standalone="no"?><!DOCTYPE svg PUBLIC "-//W3C//DTD SVG 1.1//EN" "http://www.w3.org/Graphics/SVG/1.1/DTD/svg11.dtd"><svg t="1577434993826" class="icon" viewBox="0 0 1170 1024" version="1.1" xmlns="http://www.w3.org/2000/svg" p-id="3974" xmlns:xlink="http://www.w3.org/1999/xlink" width="146.25" height="128"><defs><style type="text/css"></style></defs><path d="M54.857392 87.771828H219.430069v109.714784H54.857392a54.856892 54.856892 0 0 1 0-109.714784z m1060.569919 0H438.856639v109.714784h676.570672a54.856892 54.856892 0 0 0 0-109.714784z" fill="#009688" p-id="3975"></path><path d="M329.142854 292.571426a146.285713 146.285713 0 1 1 0-292.570426 146.285713 146.285713 0 0 1 0 292.570426z m0-73.141857a73.142856 73.142856 0 1 0 0-146.285713 73.142856 73.142856 0 0 0 0 146.285713zM54.857392 453.48611H511.999495V563.199895H54.857392a54.856892 54.856892 0 0 1 0-109.713785z m1060.569919 0H658.285208V563.199895h457.142103a54.856892 54.856892 0 0 0 0-109.713785z" fill="#009688" p-id="3976"></path><path d="M585.142351 658.285708a146.285713 146.285713 0 1 1 0-292.571426 146.285713 146.285713 0 0 1 0 292.571426z m0-73.142857a73.142856 73.142856 0 1 0 0-146.285712 73.142856 73.142856 0 0 0 0 146.285712zM54.857392 819.199392H731.429064v109.713785H54.857392a54.856892 54.856892 0 1 1 0-109.713785z m1060.569919 0H950.855634v109.713785h164.571677a54.856892 54.856892 0 1 0 0-109.713785z" fill="#009688" p-id="3977"></path><path d="M841.141849 1023.99899a146.285713 146.285713 0 1 1 0-292.570426 146.285713 146.285713 0 0 1 0 292.570426z m0-73.142856a73.142856 73.142856 0 1 0 0-146.285713 73.142856 73.142856 0 0 0 0 146.285713z" fill="#009688" p-id="3978"></path></svg>