<?xml version="1.0" standalone="no"?><!DOCTYPE svg PUBLIC "-//W3C//DTD SVG 1.1//EN" "http://www.w3.org/Graphics/SVG/1.1/DTD/svg11.dtd"><svg t="1575338166169" class="icon" viewBox="0 0 1024 1024" version="1.1" xmlns="http://www.w3.org/2000/svg" p-id="5526" xmlns:xlink="http://www.w3.org/1999/xlink" width="300" height="300"><defs><style type="text/css"></style></defs><path d="M808.215273 215.784727A416.162909 416.162909 0 0 1 930.909091 512a416.162909 416.162909 0 0 1-122.693818 296.215273A416.116364 416.116364 0 0 1 512 930.909091a416.162909 416.162909 0 0 1-296.215273-122.693818A416.116364 416.116364 0 0 1 93.090909 512a416.116364 416.116364 0 0 1 122.693818-296.215273A416.116364 416.116364 0 0 1 512 93.090909a416.116364 416.116364 0 0 1 296.215273 122.693818z m-230.725818 369.664a93.090909 93.090909 0 1 0 24.576 42.542546l135.26109-78.103273-24.576-42.496-135.26109 78.056727z m-97.978182-324.608h64.977454V130.932364h-64.977454v129.861818z m-348.625455 283.648h129.908364v-64.977454h-129.861818v64.977454z m147.362909-129.954909l32.442182-56.226909-112.500364-64.977454L165.701818 349.556364l112.546909 64.930909z m80.058182-103.796363l56.226909-32.488728L349.556364 165.701818l-56.226909 32.442182 64.930909 112.546909z m251.159273-32.488728l56.226909 32.442182 64.977454-112.500364-56.273454-32.488727-64.930909 112.546909z m103.796363 80.058182l32.488728 56.226909 112.500363-64.930909-32.488727-56.32-112.500364 65.024z m49.896728 186.181818h129.908363v-64.977454h-129.861818v64.977454z" fill="#00CCBE" p-id="5527"></path></svg>