<?xml version="1.0" standalone="no"?><!DOCTYPE svg PUBLIC "-//W3C//DTD SVG 1.1//EN" "http://www.w3.org/Graphics/SVG/1.1/DTD/svg11.dtd"><svg t="1577433453892" class="icon" viewBox="0 0 1024 1024" version="1.1" xmlns="http://www.w3.org/2000/svg" p-id="17912" xmlns:xlink="http://www.w3.org/1999/xlink" width="128" height="128"><defs><style type="text/css"></style></defs><path d="M475.59111147 56.88888853c-6.06814827-6.06814827-12.13629653-6.06814827-18.2044448 0C208.59259307 354.22814827 117.57037013 493.7955552 117.57037013 681.90814827c0 188.11259307 175.97629653 339.81629653 351.95259307 339.81629653s345.8844448-151.70370347 345.88444373-339.81629653c0-188.11259307-84.9540736-297.33925973-339.81629546-625.01925974z m91.02222186 679.63259307c-6.06814827 12.13629653-24.27259307 24.27259307-36.40888853 24.272592h-6.06814827c-12.13629653 0-24.27259307-6.06814827-36.4088896-18.20444373L384.56888853 633.3629632l-103.1585184 115.29481493c-12.13629653 12.13629653-30.34074027 12.13629653-42.4770368 0-12.13629653-12.13629653-12.13629653-30.34074027 0-42.47703786l109.22666667-121.36296214c18.2044448-18.2044448 54.61333333-18.2044448 72.81777813 0L524.13629653 694.0444448 663.70370347 518.06814827c12.13629653-12.13629653 30.34074027-18.2044448 42.4770368-6.06814827 12.13629653 12.13629653 18.2044448 30.34074027 6.06814826 42.4770368l-145.6355552 182.0444448z" fill="#008FFF" p-id="17913"></path></svg>