<?xml version="1.0" standalone="no"?><!DOCTYPE svg PUBLIC "-//W3C//DTD SVG 1.1//EN" "http://www.w3.org/Graphics/SVG/1.1/DTD/svg11.dtd"><svg t="1575337661968" class="icon" viewBox="0 0 1024 1024" version="1.1" xmlns="http://www.w3.org/2000/svg" p-id="2766" xmlns:xlink="http://www.w3.org/1999/xlink" width="300" height="300"><defs><style type="text/css"></style></defs><path d="M777.102222 438.442667a18.375111 18.375111 0 0 1 0 36.750222h-44.657778a18.375111 18.375111 0 0 1 0-36.750222h44.771556-0.056889z m0-56.433778a18.375111 18.375111 0 0 1 0 36.750222h-44.657778a18.375111 18.375111 0 0 1 0-36.750222h44.771556-0.056889z m-44.657778-189.041778a18.375111 18.375111 0 1 1 0-36.750222h44.771556a18.375111 18.375111 0 0 1 0 36.750222h-44.771556z m44.771556 19.683556a18.375111 18.375111 0 1 1 0 36.750222h-44.771556a18.375111 18.375111 0 0 1 0-36.750222h44.771556z m0 56.433777a18.375111 18.375111 0 0 1 0 36.750223h-44.771556a18.375111 18.375111 0 0 1 0-36.750223h44.771556z m0 56.433778a18.375111 18.375111 0 0 1 0 36.750222h-44.771556a18.375111 18.375111 0 0 1 0-36.750222h44.771556z m-214.698667 274.204445a141.596444 141.596444 0 1 1-114.517333 0V256c0-23.893333 25.713778-43.406222 57.287111-43.406222 31.630222 0 57.230222 19.512889 57.230222 43.406222v343.722667z m-57.230222 332.515555a203.093333 203.093333 0 0 1-202.922667-202.922666c0-60.700444 26.851556-117.703111 73.614223-156.444445l13.482666-11.150222v-408.462222c0-42.666667 53.077333-78.620444 115.825778-78.620445 62.805333 0 115.825778 36.010667 115.825778 78.677334v408.405333l13.539555 11.207111A202.467556 202.467556 0 0 1 708.266667 729.315556a203.093333 203.093333 0 0 1-202.922667 202.922666h-0.056889zM695.751111 527.36V153.258667c0-42.325333-21.674667-83.057778-59.619555-111.729778C600.746667 14.791111 554.382222 0 505.344 0c-49.038222 0-95.459556 14.734222-130.844444 41.528889-37.944889 28.728889-59.619556 69.404444-59.619556 111.729778V527.36A276.764444 276.764444 0 0 0 227.783111 729.315556c0 74.126222 28.842667 143.815111 81.294222 196.266666a275.740444 275.740444 0 0 0 196.209778 81.351111 275.740444 275.740444 0 0 0 196.209778-81.351111 275.740444 275.740444 0 0 0 81.351111-196.266666A276.764444 276.764444 0 0 0 695.637333 527.36l0.056889-0.056889z" fill="#338FE2" p-id="2767"></path></svg>