<?xml version="1.0" standalone="no"?><!DOCTYPE svg PUBLIC "-//W3C//DTD SVG 1.1//EN" "http://www.w3.org/Graphics/SVG/1.1/DTD/svg11.dtd"><svg t="1577433005971" class="icon" viewBox="0 0 1025 1024" version="1.1" xmlns="http://www.w3.org/2000/svg" p-id="4061" xmlns:xlink="http://www.w3.org/1999/xlink" width="128.125" height="128"><defs><style type="text/css"></style></defs><path d="M884.835574 292.914259a9.499788 9.499788 0 0 0-8.243926-5.098053h-0.497371l-55.282795-0.373028 14.224813-70.651561a5.744636 5.744636 0 0 0 0.099474-0.596846c0.497371-4.426603-0.397897-7.933069-2.660935-10.419924a10.046896 10.046896 0 0 0-7.584909-3.245346 15.915874 15.915874 0 0 0-7.249183 1.97705 7.012932 7.012932 0 0 0-1.952182 1.604022l-106.400107 125.77271a6.602601 6.602601 0 0 0-0.460068 0.60928 9.561959 9.561959 0 0 0-0.783359 9.835512c0.982308 1.815404 3.5189 4.861802 9.45005 4.861803H767.344092l-27.355409 79.069566a6.677207 6.677207 0 0 0-0.323291 1.392639 10.556701 10.556701 0 0 0 2.486855 8.16932 9.947421 9.947421 0 0 0 7.535172 3.220478 16.16456 16.16456 0 0 0 5.956018-1.243428 7.149709 7.149709 0 0 0 2.486856-1.728364l124.852573-132.014718a6.813984 6.813984 0 0 0 0.721188-0.895268c0.833097-1.243428 3.394558-5.645162 1.143954-10.233409z m0 0" fill="#1DB4B1" p-id="4062"></path><path d="M296.408291 812.828677h-116.969242a27.914951 27.914951 0 1 1 0-55.817469h116.969242a27.914951 27.914951 0 1 1 0 55.817469zM882.137336 768.649691H620.321203a27.914951 27.914951 0 1 1 0-55.817469h261.816133a27.914951 27.914951 0 1 1 0 55.817469zM433.707576 815.191189a27.977123 27.977123 0 0 1-26.65909-36.320522L506.075067 459.757386a27.952254 27.952254 0 0 1 53.318179 16.773839L460.354231 795.669375a27.977123 27.977123 0 0 1-26.646655 19.521814z" fill="#26B1AA" p-id="4063"></path><path d="M617.424016 767.306789a27.914951 27.914951 0 0 1-26.770998-19.894843l-81.332605-272.522045a27.927386 27.927386 0 0 1 53.529562-15.940743l81.394776 272.484742a27.890083 27.890083 0 0 1-18.775758 34.728936 28.250677 28.250677 0 0 1-8.044977 1.143953zM298.186393 811.336563a27.977123 27.977123 0 0 1-26.435273-36.929802l63.128824-184.959868a27.927386 27.927386 0 0 1 52.870545 18.017267l-63.128824 184.959868a27.952254 27.952254 0 0 1-26.435272 18.912535z" fill="#26B1AA" p-id="4064"></path><path d="M428.845774 814.606778a27.964689 27.964689 0 0 1-26.298496-18.514638l-67.281872-187.75758a27.933603 27.933603 0 0 1 52.609426-18.800627l67.281871 187.75758a27.964689 27.964689 0 0 1-26.298495 37.302831z" fill="#26B1AA" p-id="4065"></path><path d="M707.012981 1023.987566l-422.29291 0 0-71.534395 422.29291 0 0 71.534395Z" fill="#1DB4B1" p-id="4066"></path><path d="M885.196168 962.972569H140.084563C62.842835 962.972569 0.012434 886.116304 0.012434 791.640669V171.344335C0.012434 76.843831 62.842835 0 140.084563 0H885.196168c77.241728 0 140.072129 76.856265 140.072128 171.344335v620.296334c0.012434 94.475635-62.830401 171.3319-140.072128 171.3319zM140.084563 68.35122c-46.442024 0-84.192488 46.205773-84.192489 102.993115v620.296334c0 56.787342 37.762899 102.980681 84.192489 102.980681H885.196168c46.442024 0 84.192488-46.193338 84.192488-102.980681V171.344335c0-56.787342-37.762899-102.993115-84.192488-102.993115z" fill="#1DB4B1" p-id="4067"></path></svg>