<?xml version="1.0" standalone="no"?><!DOCTYPE svg PUBLIC "-//W3C//DTD SVG 1.1//EN" "http://www.w3.org/Graphics/SVG/1.1/DTD/svg11.dtd"><svg t="1575337903769" class="icon" viewBox="0 0 1024 1024" version="1.1" xmlns="http://www.w3.org/2000/svg" p-id="3143" xmlns:xlink="http://www.w3.org/1999/xlink" width="300" height="300"><defs><style type="text/css"></style></defs><path d="M647.68 327.68c-33.28-45.056-64-91.648-92.672-140.288l-48.64-96.256c-7.168 13.312-13.824 26.624-20.992 40.448s-19.968 39.424-30.208 57.344c-29.184 51.2-60.416 96.768-90.624 142.336-38.912 58.368-78.848 119.296-115.2 186.368A264.192 264.192 0 0 0 272.384 768a287.232 287.232 0 0 0 235.52 127.488H512A279.552 279.552 0 0 0 745.472 768a261.12 261.12 0 0 0 19.456-248.32 1293.824 1293.824 0 0 0-117.248-192z m65.024 392.704A252.416 252.416 0 0 1 512 849.92a248.832 248.832 0 0 1-204.8-122.368 240.128 240.128 0 0 1-8.192-229.888 2332.16 2332.16 0 0 1 163.84-249.344 47.616 47.616 0 0 1 76.8 0c26.624 37.376 61.952 87.552 84.48 122.368s47.616 74.752 64 99.328a246.272 246.272 0 0 1 24.576 250.368z" fill="#31CAFF" p-id="3144"></path><path d="M496.64 603.648a201.216 201.216 0 0 1-182.784 0 216.576 216.576 0 0 0 31.232 120.32A197.632 197.632 0 0 0 512 819.2a199.168 199.168 0 0 0 148.992-80.896 460.8 460.8 0 0 0 23.552-41.472 194.56 194.56 0 0 0 8.704-122.368 283.648 283.648 0 0 0-196.608 29.184z" fill="#31CAFF" p-id="3145"></path></svg>