<?xml version="1.0" standalone="no"?><!DOCTYPE svg PUBLIC "-//W3C//DTD SVG 1.1//EN" "http://www.w3.org/Graphics/SVG/1.1/DTD/svg11.dtd"><svg t="1577434004958" class="icon" viewBox="0 0 1024 1024" version="1.1" xmlns="http://www.w3.org/2000/svg" p-id="54856" xmlns:xlink="http://www.w3.org/1999/xlink" width="128" height="128"><defs><style type="text/css"></style></defs><path d="M993.2 600h-82c-5 0-9-4-9-9v-20c0-17-13.8-30.8-30.8-30.8h-116.2c-18.2 0-32.8 14.8-32.8 32.8v18c0 5-4 9-9 9h-41.8c-5 0-9-4-9-9v-101.8c0-5 4-9 9-9h12.8c21 0 38.2-17 38.2-38.2v-114c0-15.4-12.4-27.8-27.8-27.8h-49c-7.2 0-11.6-8-7.6-14.2L706 184.2c1.6-2.6 4.6-4 7.6-4h90c21.6 0 39.2-17.6 39.2-39.2v-112c0-16-13-28.8-28.8-28.8H209.8c-15.4 0-27.8 12.4-27.8 27.8v119c0 18.2 14.8 33.2 33.2 33.2h96c3 0 5.8 1.6 7.6 4l67.8 101.8c4 6-0.4 14.2-7.6 14.2h-44c-18.2 0-32.8 14.8-32.8 32.8v113c0 18.8 15.2 34.2 34.2 34.2h16.8c5 0 9 4 9 9v101.8c0 5-4 9-9 9h-41.8c-5 0-9-4-9-9v-24c0-14.8-12-26.8-26.8-26.8H149.8c-15.4 0-27.8 12.4-27.8 27.8v23c0 5-4 9-9 9H40c-22 0-39.8 17.8-39.8 39.8v226c0 18.8 15.2 34.2 34.2 34.2h78.8c5 0 9 4 9 9v19.8c0 17.2 14 31.2 31.2 31.2h114.8c18.8 0 34.2-15.2 34.2-34.2v-16.8c0-5 4-9 9-9h401.8c5 0 9 4 9 9v22.8c0 15.6 12.6 28.2 28.2 28.2h119.8c17.8 0 32.2-14.4 32.2-32.2v-18.8c0-5 4-9 9-9h82.8c16.6 0 30.2-13.4 30.2-30.2V630.8c-0.4-17-14.2-30.8-31.2-30.8z m-442.2-300c-5 0-9-4-9-9v-101.8c0-5 4-9 9-9h67.8c7.2 0 11.6 8 7.6 14.2L558.6 296.2c-1.6 2.2-4.4 3.8-7.6 3.8z m-300-240h521.8c5 0 9 4 9 9v41.8c0 5-4 9-9 9H251c-5 0-9-4-9-9v-41.8c0-5 4-9 9-9z m154 120h67.8c5 0 9 4 9 9v101.8c0 5-4 9-9 9-3 0-5.8-1.6-7.6-4L397.4 194.2c-4-6.2 0.4-14.2 7.6-14.2z m-34 180h281.8c5 0 9 4 9 9v41.8c0 5-4 9-9 9H371c-5 0-9-4-9-9v-41.8c0-5 4-9 9-9zM60 830.8v-161.8c0-5 4-9 9-9h43.8c5 0 9 4 9 9v161.8c0 5-4 9-9 9H69c-5 0.2-9-3.8-9-9z m173 69.2h-42c-5 0-9-4-9-9v-282c0-5 4-9 9-9h41.8c5 0 9 4 9 9v281.8c0.2 5.2-3.8 9.2-8.8 9.2z m69-69.2v-161.8c0-5 4-9 9-9h101.8c5 0 9-4 9-9v-161.8c0-5 4-9 9-9h161.8c5 0 9 4 9 9v161.8c0 5 4 9 9 9h101.8c5 0 9 4 9 9v161.8c0 5-4 9-9 9H311c-5 0.2-9-3.8-9-9z m531 69.2h-41.8c-5 0-9-4-9-9v-282c0-5 4-9 9-9h41.8c5 0 9 4 9 9v281.8c0 5.2-4 9.2-9 9.2z m122-60h-43.8c-5 0-9-4-9-9v-161.8c0-5 4-9 9-9h43.8c5 0 9 4 9 9v161.8c0 5-4 9-9 9z" fill="#1190FB" p-id="54857"></path></svg>