<?xml version="1.0" standalone="no"?><!DOCTYPE svg PUBLIC "-//W3C//DTD SVG 1.1//EN" "http://www.w3.org/Graphics/SVG/1.1/DTD/svg11.dtd"><svg t="1577434037542" class="icon" viewBox="0 0 1024 1024" version="1.1" xmlns="http://www.w3.org/2000/svg" p-id="56989" xmlns:xlink="http://www.w3.org/1999/xlink" width="128" height="128"><defs><style type="text/css"></style></defs><path d="M475.229091 858.996364a418.909091 418.909091 0 1 1 418.909091-418.909091 418.909091 418.909091 0 0 1-418.909091 418.909091z m0-759.621819A340.247273 340.247273 0 1 0 814.545455 439.621818 340.712727 340.712727 0 0 0 475.229091 99.374545z" fill="#13227a" p-id="56990"></path><path d="M719.825455 614.632727a19.083636 19.083636 0 0 1-10.007273-2.792727 18.850909 18.850909 0 0 1-5.818182-25.832727 271.825455 271.825455 0 1 0-459.170909-2.792728 18.618182 18.618182 0 0 1-6.050909 25.6 18.385455 18.385455 0 0 1-25.6-5.818181A309.061818 309.061818 0 1 1 735.418182 605.090909a18.385455 18.385455 0 0 1-15.592727 9.541818z" fill="#13227a" p-id="56991"></path><path d="M851.781818 328.843636m29.090909 0l58.181818 0q29.090909 0 29.09091 29.090909l0 128q0 29.090909-29.09091 29.09091l-58.181818 0q-29.090909 0-29.090909-29.09091l0-128q0-29.090909 29.090909-29.090909Z" fill="#13227a" p-id="56992"></path><path d="M408.436364 794.298182m21.410909 0l90.996363 0q21.410909 0 21.410909 21.410909l0 79.36q0 21.410909-21.410909 21.410909l-90.996363 0q-21.410909 0-21.410909-21.410909l0-79.36q0-21.410909 21.410909-21.410909Z" fill="#13227a" p-id="56993"></path><path d="M431.709091 881.570909m34.909091 0l17.454545 0q34.909091 0 34.909091 34.909091l0 52.363636q0 34.909091-34.909091 34.909091l-17.454545 0q-34.909091 0-34.909091-34.909091l0-52.363636q0-34.909091 34.909091-34.909091Z" fill="#13227a" p-id="56994"></path><path d="M304.174545 612.770909m18.618182 0l305.105455 0q18.618182 0 18.618182 18.618182l0 0q0 18.618182-18.618182 18.618182l-305.105455 0q-18.618182 0-18.618182-18.618182l0 0q0-18.618182 18.618182-18.618182Z" fill="#13227a" p-id="56995"></path><path d="M399.36 682.589091m18.618182 0l114.501818 0q18.618182 0 18.618182 18.618182l0 0q0 18.618182-18.618182 18.618182l-114.501818 0q-18.618182 0-18.618182-18.618182l0 0q0-18.618182 18.618182-18.618182Z" fill="#13227a" p-id="56996"></path><path d="M493.847273 150.341818m0 18.618182l0 40.727273q0 18.618182-18.618182 18.618182l0 0q-18.618182 0-18.618182-18.618182l0-40.727273q0-18.618182 18.618182-18.618182l0 0q18.618182 0 18.618182 18.618182Z" fill="#13227a" p-id="56997"></path><path d="M258.327273 417.28m-18.618182 0l-40.727273 0q-18.618182 0-18.618182-18.618182l0 0q0-18.618182 18.618182-18.618182l40.727273 0q18.618182 0 18.618182 18.618182l0 0q0 18.618182-18.618182 18.618182Z" fill="#13227a" p-id="56998"></path><path d="M770.327273 417.28m-18.618182 0l-40.727273 0q-18.618182 0-18.618182-18.618182l0 0q0-18.618182 18.618182-18.618182l40.727273 0q18.618182 0 18.618182 18.618182l0 0q0 18.618182-18.618182 18.618182Z" fill="#13227a" p-id="56999"></path><path d="M297.919081 194.935933m13.165042 13.165042l28.798531 28.798531q13.165043 13.165043 0 26.330085l0 0q-13.165043 13.165043-26.330085 0l-28.798531-28.79853q-13.165043-13.165043 0-26.330086l0 0q13.165043-13.165043 26.330085 0Z" fill="#13227a" p-id="57000"></path><path d="M199.517219 541.636599m16.123819-9.309091l35.270853-20.363636q16.123818-9.309091 25.432909 6.814728l0 0q9.309091 16.123818-6.814727 25.432909l-35.270853 20.363636q-16.123818 9.309091-25.43291-6.814727l0 0q-9.309091-16.123818 6.814728-25.43291Z" fill="#13227a" p-id="57001"></path><path d="M732.546154 573.826054m-16.123819-9.309091l-35.270852-20.363636q-16.123818-9.309091-6.814728-25.432909l0 0q9.309091-16.123818 25.43291-6.814728l35.270852 20.363637q16.123818 9.309091 6.814728 25.432909l0 0q-9.309091 16.123818-25.43291 6.814727Z" fill="#13227a" p-id="57002"></path><path d="M678.983896 221.353462m-13.165043 13.165043l-28.79853 28.79853q-13.165043 13.165043-26.330086 0l0 0q-13.165043-13.165043 0-26.330085l28.798531-28.798531q13.165043-13.165043 26.330085 0l0 0q13.165043 13.165043 0 26.330086Z" fill="#13227a" p-id="57003"></path><path d="M421.469091 337.687273l93.090909 101.701818a18.385455 18.385455 0 0 1-1.163636 26.065454 18.850909 18.850909 0 0 1-26.298182 0l-93.090909-101.701818c-6.981818-7.447273-53.527273-69.818182-46.545455-77.730909 8.145455-6.749091 67.025455 44.218182 74.007273 51.665455z" fill="#13227a" p-id="57004"></path></svg>