<?xml version="1.0" standalone="no"?><!DOCTYPE svg PUBLIC "-//W3C//DTD SVG 1.1//EN" "http://www.w3.org/Graphics/SVG/1.1/DTD/svg11.dtd"><svg t="1575337927180" class="icon" viewBox="0 0 1024 1024" version="1.1" xmlns="http://www.w3.org/2000/svg" p-id="3881" xmlns:xlink="http://www.w3.org/1999/xlink" width="300" height="300"><defs><style type="text/css"></style></defs><path d="M507.954692 1020.360319c-280.079995 0-507.954692-227.874698-507.954692-507.954692 0-280.079995 227.874698-507.954692 507.954692-507.954692s507.954692 227.874698 507.954693 507.954692c-0.021926 280.079995-227.896623 507.954692-507.954693 507.954692z m0-972.057812c-255.895853 0-464.10312 208.185341-464.103119 464.10312 0 255.917778 208.185341 464.10312 464.103119 464.10312s464.10312-208.185341 464.10312-464.10312c-0.021926-255.895853-208.207267-464.10312-464.10312-464.10312z" fill="#17CAFE" p-id="3882"></path><path d="M261.881592 788.889793c-11.686444 0-20.456759-5.854185-26.310943-14.6245-5.854185-8.770315-5.854185-20.456759-2.91613-29.227073 14.624499-35.081258 32.165129-70.162516 46.767702-105.243774l105.243775-228.028178c2.91613-8.770315 11.686444-17.540629 23.394814-23.394814 111.097959-49.705758 222.173993-99.38959 330.333897-149.095348 20.456759-8.770315 40.935443 0 46.767702 20.456759 0 8.770315 0 14.624499-2.916129 23.394814-46.767702 99.38959-90.619275 198.779179-137.408903 301.106824-5.854185 11.686444-8.770315 20.456759-14.6245 32.165129a26.310944 26.310944 0 0 1-17.540629 17.540629c-111.097959 49.705758-222.173993 102.327645-336.188082 152.011477-5.832259 2.938055-8.748389 2.938055-14.602574 2.938055z m429.723487-458.95056c-2.91613 0-2.91613 0-5.854185 2.91613-81.84896 37.997388-163.697921 73.078646-245.568807 111.097959-2.91613 2.91613-5.854185 2.91613-5.854185 5.854185-32.165129 67.246387-61.392202 134.470848-93.557331 201.717234l-20.456758 43.851573c2.91613 0 5.854185-2.91613 5.854185-2.916129 81.84896-37.997388 160.781791-73.078646 242.630752-111.09796 2.91613-2.91613 5.854185-2.91613 5.854185-5.854185 20.456759-43.851573 40.935443-90.619275 61.392201-134.470848l55.559943-111.097959z" fill="#17CAFE" p-id="3883"></path><path d="M536.677473 514.093913c0 8.770315-2.91613 14.624499-8.770315 20.456758-5.854185 5.854185-14.624499 8.770315-23.394814 8.770315-17.540629 0-29.227073-14.624499-29.227073-32.165129s14.624499-32.165129 32.165128-32.165128c17.540629 2.959981 32.143203 17.562555 29.227074 35.103184z" fill="#17CAFE" p-id="3884"></path></svg>