<?xml version="1.0" standalone="no"?><!DOCTYPE svg PUBLIC "-//W3C//DTD SVG 1.1//EN" "http://www.w3.org/Graphics/SVG/1.1/DTD/svg11.dtd"><svg t="1575337954228" class="icon" viewBox="0 0 1034 1024" version="1.1" xmlns="http://www.w3.org/2000/svg" p-id="4624" xmlns:xlink="http://www.w3.org/1999/xlink" width="302.9296875" height="300"><defs><style type="text/css"></style></defs><path d="M544.535398 543.7696c1.77664-35.46624-9.45664-65.60256-33.09568-90.43456-36.05504-39.00928-101.0688-60.8768-177.31584-60.8768-63.24224 0-125.89568 15.36512-171.99616 41.96352-7.09632 4.13184-14.77632 8.86272-23.05024 15.36512 0 0-30.14656 17.13664-69.15584 67.3792C17.907558 585.1392-8.685722 665.51808 2.542438 727.58784c7.0912 39.58784 28.37504 71.51616 61.47072 92.20608 27.1872 17.13664 52.60288 25.41568 77.42464 25.41568 59.10528 0 102.84544-47.29344 148.94592-96.93696 32.50688-34.87744 66.19648-71.51616 108.16-95.75936 43.15136-24.82176 73.2928-39.58784 93.3888-49.0496 40.19712-18.91328 50.83648-24.23296 52.60288-59.69408z m314.44992 169.0368c-46.69952-10.62912-95.16544-21.86752-136.53504-46.09536-43.14624-24.82688-70.93248-43.74016-89.25184-56.15104-23.63392-15.95904-36.0448-24.23808-50.24256-24.23808-8.8576 0-17.73056 3.54816-28.3648 8.87296-43.15136 21.8624-66.7904 60.8768-67.97312 112.88576-2.36032 95.1552 73.28256 219.86816 164.89984 273.05984 6.50752 3.55328 10.05568 4.736 22.46656 11.2384 12.42112 6.5024 87.4752 26.0096 87.4752 26.0096 19.5072 2.94912 39.0144 4.72576 58.51136 4.72576 95.75424 0 209.82784-39.0144 213.9648-149.53984 4.72576-119.38816-82.15552-139.4944-174.9504-160.768z m-274.83648-323.8912c0 50.23744-2.36544 83.33312-4.14208 105.78944-2.95936 44.33408-4.14208 56.15104 25.99936 75.65824 20.68992 13.58848 43.14624 20.68992 66.2016 20.68992 112.896 0 219.27936-169.04192 219.27936-299.07456 0-15.96416-1.7664-32.512-5.31968-51.42528 0 0-2.94912-29.55264-29.54752-93.97248C824.107878 67.3792 752.002918 0 669.258598 0c-21.2736 0-42.56256 5.31968-62.65344 15.95904-105.79968 55.56224-79.20128 141.2608-51.42528 232.27904 14.78144 44.928 28.96896 92.2112 28.96896 140.67712z" fill="#0B9A64" p-id="4625"></path></svg>